<svg id="icon" xmlns="http://www.w3.org/2000/svg" width="78.579" height="78.573" viewBox="0 0 78.579 78.573">
  <g id="Group_1" data-name="Group 1" transform="translate(4.53 4.552)">
    <path id="Path_1" data-name="Path 1" d="M71.875,75.368A222.118,222.118,0,0,0,27.548,54.78,36.946,36.946,0,0,0,20.04,68.032c12.518,6.181,29.779,14.891,43.924,22.062a109.585,109.585,0,0,0,7.908-14.726Z" transform="translate(-18.314 -42.23)" fill="#00a9e5"/>
    <path id="Path_2" data-name="Path 2" d="M191.25,88.692c3.715,2.276,6.98,4.424,9.753,6.334a70.443,70.443,0,0,0,1.7-6.915c.4-2.07.684-4.061.883-5.953q-3.784-3.873-7.511-7.268a104.343,104.343,0,0,1-3.309,10.083q-.688,1.789-1.517,3.721Z" transform="translate(-136.075 -56.062)" fill="#00d2ff"/>
    <path id="Path_3" data-name="Path 3" d="M164.41,137.505c4.177,2.117,8.051,4.086,11.423,5.8a68.425,68.425,0,0,0,6.312-14c-2.785-1.929-6.088-4.111-9.868-6.431A111,111,0,0,1,164.41,137.505Z" transform="translate(-117.614 -89.064)" fill="#00a9e5"/>
    <path id="Path_4" data-name="Path 4" d="M136.13,14.58a184.109,184.109,0,0,1,21.331,16.471c.78-3.122,1.271-5.757,1.583-7.773a36.856,36.856,0,0,0-22.914-8.7Z" transform="translate(-98.163 -14.58)" fill="#66deff"/>
    <path id="Path_5" data-name="Path 5" d="M210.919,145.93a69.654,69.654,0,0,1-6.269,13.82c3.091,1.573,5.694,2.9,7.642,3.893a36.92,36.92,0,0,0,5.847-12.347C216.557,150.045,214.128,148.19,210.919,145.93Z" transform="translate(-145.292 -104.925)" fill="#00a9e5"/>
    <path id="Path_6" data-name="Path 6" d="M179.3,203.453q3.358.819,6.949,1.561a37.263,37.263,0,0,0,7.826-7.474c-1.942-.99-4.5-2.295-7.524-3.83a70.344,70.344,0,0,1-7.252,9.743Z" transform="translate(-127.856 -137.789)" fill="#008be4"/>
    <path id="Path_7" data-name="Path 7" d="M59.461,123.1c-14.042-7.121-31.128-15.74-43.587-21.9a37.2,37.2,0,0,0-.943,15.565c5.4,4.38,16.655,12.056,35.339,18.481a113.356,113.356,0,0,0,9.194-12.15Z" transform="translate(-14.51 -74.159)" fill="#008be4"/>
    <path id="Path_8" data-name="Path 8" d="M227.891,106.931a71.133,71.133,0,0,1-1.861,7.5c3.084,2.16,5.485,3.974,7.14,5.27a37.088,37.088,0,0,0,.877-8,37.638,37.638,0,0,0-.234-4.133q-2.571-2.9-5.148-5.585c-.194,1.592-.446,3.247-.771,4.954Z" transform="translate(-159.997 -74.695)" fill="#00d2ff"/>
    <path id="Path_9" data-name="Path 9" d="M51.036,174.736c-17.32-6.022-28.274-13.108-34.1-17.626a37.08,37.08,0,0,0,24.182,27.5A117.1,117.1,0,0,0,51.036,174.736Z" transform="translate(-16.181 -112.615)" fill="#006ab9"/>
    <path id="Path_10" data-name="Path 10" d="M121.614,218.815c-4.633-1.186-8.928-2.469-12.9-3.815a118.32,118.32,0,0,1-9.815,9.884,37.069,37.069,0,0,0,14.607,1.361A75.586,75.586,0,0,0,121.614,218.815Z" transform="translate(-72.555 -152.433)" fill="#006ab9"/>
    <path id="Path_11" data-name="Path 11" d="M91.006,46.566q.777-1.817,1.427-3.509a103.077,103.077,0,0,0,3.44-10.586A182.184,182.184,0,0,0,72.584,14.62,36.9,36.9,0,0,0,47.11,26.127,223.321,223.321,0,0,1,91.006,46.566Z" transform="translate(-36.933 -14.608)" fill="#00d2ff"/>
    <path id="Path_12" data-name="Path 12" d="M153.728,179.019c-3.384-1.72-7.271-3.7-11.457-5.819a114.113,114.113,0,0,1-9.031,12.013c3.993,1.336,8.31,2.61,12.974,3.784a69.152,69.152,0,0,0,7.511-9.977Z" transform="translate(-96.175 -123.682)" fill="#008be4"/>
    <path id="Path_13" data-name="Path 13" d="M153.53,235.088a36.817,36.817,0,0,0,13.517-5.248c-2.213-.471-4.367-.965-6.447-1.48a76.23,76.23,0,0,1-7.071,6.727Z" transform="translate(-110.131 -161.622)" fill="#006ab9"/>
    <path id="Path_14" data-name="Path 14" d="M207.89,53.365q3.61,3.283,7.3,7a72.445,72.445,0,0,0,.234-7.851,37.268,37.268,0,0,0-5.891-6.9C209.192,47.7,208.67,50.325,207.89,53.365Z" transform="translate(-147.52 -35.93)" fill="#66deff"/>
    <path id="Path_15" data-name="Path 15" d="M235.03,81.4q2.318,2.384,4.639,4.954a36.76,36.76,0,0,0-4.28-11.891c-.009,2.092-.109,4.421-.359,6.937Z" transform="translate(-166.188 -55.767)" fill="#66deff"/>
  </g>
  <g id="Group_2" data-name="Group 2">
    <path id="Path_16" data-name="Path 16" d="M9.206,60.226A17.586,17.586,0,0,1,11.132,71.97,17.586,17.586,0,0,1,22.877,73.9c.353.2.687.415,1.008.634L51.132,41.548,36.694,30.185,58.4,7.973h0A17.724,17.724,0,0,1,52.687,0,17.583,17.583,0,0,1,41.554,4.2,17.6,17.6,0,0,1,30.419,0,17.568,17.568,0,0,1,22.88,9.206a17.586,17.586,0,0,1-11.744,1.926A17.586,17.586,0,0,1,9.209,22.877,17.577,17.577,0,0,1,0,30.419,17.583,17.583,0,0,1,4.2,41.551,17.6,17.6,0,0,1,0,52.687,17.568,17.568,0,0,1,9.206,60.226Z" fill="#fdbd00"/>
    <path id="Path_17" data-name="Path 17" d="M48.2,101.286A126.72,126.72,0,0,1,14.08,124.65a16.742,16.742,0,0,1,4.811,5.238,17.586,17.586,0,0,1,1.926,11.744,17.586,17.586,0,0,1,11.744,1.926c.353.2.687.415,1.008.634L60.817,111.21,48.2,101.28Z" transform="translate(-9.684 -69.662)" fill="#ffa300"/>
  </g>
  <path id="Path_18" data-name="Path 18" d="M112.166,50.057a.649.649,0,0,0-.343-.49L94.731,40.894l15.328-25.733a.639.639,0,0,0-.94-.834L74.429,41.2a.64.64,0,0,0,.1,1.071L90.984,50.84,70.271,85.583a.639.639,0,0,0,.14.818.627.627,0,0,0,.409.147.646.646,0,0,0,.421-.159l40.712-35.779a.643.643,0,0,0,.212-.559Z" transform="translate(-48.272 -9.764)" fill="#fff"/>
</svg>
